<svg height="512pt" viewBox="0 -13 512 511" width="512pt" xmlns="http://www.w3.org/2000/svg"><path d="m495.367188 467.109375-115.78125-60.539063v-135.144531l115.78125-66.636719c7.644531-3.902343 16.632812 1.773438 16.632812 10.484376v241.347656c0 8.714844-8.988281 14.390625-16.632812 10.488281zm0 0" fill="#4a627c"/><path d="m379.585938 274.15625h17.65625v123.585938h-17.65625zm0 0" fill="#4a627c"/><path d="m369.0625 486.015625h-349.710938c-10.691406 0-19.351562-8.660156-19.351562-19.347656v-261.4375c0-10.691407 8.660156-19.351563 19.351562-19.351563h349.722657c10.679687 0 19.339843 8.660156 19.339843 19.351563v261.445312c0 10.679688-8.660156 19.339844-19.351562 19.339844zm0 0" fill="#28384c"/><path d="m141.242188 401.828125v-132.792969c0-6.886718 7.617187-11.148437 13.648437-7.652344l114.324219 66.390626c5.921875 3.441406 5.921875 11.863281 0 15.308593l-114.324219 66.398438c-6.03125 3.496093-13.648437-.773438-13.648437-7.652344zm0 0" fill="#fff"/><path d="m158.898438 115.257812c0 39.003907-31.621094 70.621094-70.621094 70.621094-39.003906 0-70.621094-31.617187-70.621094-70.621094 0-39 31.617188-70.621093 70.621094-70.621093 39 0 70.621094 31.621093 70.621094 70.621093zm0 0" fill="#4a627c"/><path d="m344.277344 93.191406c0 51.1875-41.5 92.6875-92.691406 92.6875-51.191407 0-92.6875-41.5-92.6875-92.6875 0-51.191406 41.496093-92.691406 92.6875-92.691406 51.191406 0 92.691406 41.5 92.691406 92.691406zm0 0" fill="#4a627c"/><g fill="#fff"><path d="m251.585938 159.398438c-36.5 0-66.207032-29.699219-66.207032-66.207032 0-36.511718 29.707032-66.207031 66.207032-66.207031 4.875 0 8.828124 3.945313 8.828124 8.824219 0 4.882812-3.953124 8.828125-8.828124 8.828125-26.773438 0-48.550782 21.789062-48.550782 48.554687 0 26.761719 21.777344 48.550782 48.550782 48.550782 26.773437 0 48.550781-21.789063 48.550781-48.550782 0-4.882812 3.957031-8.828125 8.828125-8.828125 4.875 0 8.828125 3.945313 8.828125 8.828125 0 36.507813-29.695313 66.207032-66.207031 66.207032zm0 0"/><path d="m88.277344 159.398438c-24.339844 0-44.140625-19.800782-44.140625-44.140626 0-4.878906 3.957031-8.828124 8.828125-8.828124 4.875 0 8.828125 3.949218 8.828125 8.828124 0 14.601563 11.882812 26.484376 26.484375 26.484376 14.597656 0 26.480468-11.882813 26.480468-26.484376 0-14.601562-11.882812-26.480468-26.480468-26.480468-4.875 0-8.828125-3.949219-8.828125-8.828125 0-4.882813 3.953125-8.828125 8.828125-8.828125 24.335937 0 44.136718 19.800781 44.136718 44.136718 0 24.339844-19.800781 44.140626-44.136718 44.140626zm0 0"/></g></svg>